PathFileType	4	(X/Y/Z)	D:/Ayumi_testdata/Ayumi_25_09_2024/25-09-2024/conventional_dl_80kg01/conventional_dl_80kg01.trc	
DataRate	CameraRate	NumFrames	NumMarkers	Units	OrigDataRate	OrigDataStartFrame	OrigNumFrames	
200.00	200.00	5	55	mm	200.00	1473	2620	
Frame#	Time	RSACR			LSACR			USACR			LBAR			RBAR			RHEE			RMT1			RMT5			RMT2			LHEE			LMT1			LMT5			LMT2			LMMAL			LLMAL			LTIB4			LTIB3			LTIB2			LTIB1			RMMAL			RLMAL			RTIB1			RTIB3			RTIB2			RTHI			RTHI4			RTHI3			RTHI2			LTHI1			LTHI4			LTHI3			LTHI2			FHD			LBHD			RBHD			C7			T10			CLAV			LSHO			RSHO			LRAD			LUL			LRFIN			RRAD			RUL			RUFIN			LMUPA			LDUPA			LUUPA			RMUPA			RUUPA			RDUPA			*52			*53			*54			
		X1	Y1	Z1	X2	Y2	Z2	X3	Y3	Z3	X4	Y4	Z4	X5	Y5	Z5	X6	Y6	Z6	X7	Y7	Z7	X8	Y8	Z8	X9	Y9	Z9	X10	Y10	Z10	X11	Y11	Z11	X12	Y12	Z12	X13	Y13	Z13	X14	Y14	Z14	X15	Y15	Z15	X16	Y16	Z16	X17	Y17	Z17	X18	Y18	Z18	X19	Y19	Z19	X20	Y20	Z20	X21	Y21	Z21	X22	Y22	Z22	X23	Y23	Z23	X24	Y24	Z24	X25	Y25	Z25	X26	Y26	Z26	X27	Y27	Z27	X28	Y28	Z28	X29	Y29	Z29	X30	Y30	Z30	X31	Y31	Z31	X32	Y32	Z32	X33	Y33	Z33	X34	Y34	Z34	X35	Y35	Z35	X36	Y36	Z36	X37	Y37	Z37	X38	Y38	Z38	X39	Y39	Z39	X40	Y40	Z40	X41	Y41	Z41	X42	Y42	Z42	X43	Y43	Z43	X44	Y44	Z44	X45	Y45	Z45	X46	Y46	Z46	X47	Y47	Z47	X48	Y48	Z48	X49	Y49	Z49	X50	Y50	Z50	X51	Y51	Z51	X52	Y52	Z52	X53	Y53	Z53	X54	Y54	Z54	X55	Y55	Z55	

1311	6.550	444.59735	976.52197	821.45850	444.84555	917.19763	820.32172	429.71094	945.77509	830.75592	243.18591	-184.64571	395.71585	127.24669	2032.68762	436.13629	273.48224	1358.63501	34.56629	119.95415	1481.72729	44.40982	189.66379	1523.22327	29.45498	151.32373	1507.81091	42.07121	308.64529	487.98773	41.33603	146.68436	381.74121	49.86625	213.31206	336.55240	29.73885	173.78354	353.16034	46.35661	249.12204	496.77628	72.03744	294.27426	429.30054	71.06314	318.49454	479.57187	204.75029	309.03415	479.53384	269.58185	343.01007	514.79749	254.61092	340.83887	519.78809	297.34821	223.81500	1362.00037	67.15382	270.16748	1420.39514	69.48465	272.74796	1397.18811	316.86404	279.89233	1399.32031	251.85423	310.16788	1367.34277	300.55182	427.67743	1153.51697	698.22052	376.31610	1247.81543	570.38635	339.64261	1253.52856	605.70190	390.07599	1216.81140	627.32947	446.30112	761.47845	681.45496	364.52292	654.48035	597.07605	405.79172	668.93085	569.08435	402.40781	697.24622	628.60553	-56.15806	839.14539	1265.24951	56.87377	846.01495	1271.38525	73.59969	969.13660	1253.30334	104.91994	904.03113	1113.12695	389.68884	937.36664	869.46234	48.31676	919.33423	985.82446	77.15607	736.18524	1024.96509	59.37377	1065.84460	1025.93579	155.67319	664.30499	492.61572	154.09764	705.36340	493.02496	158.68047	723.12897	406.86710	138.19719	1148.41504	500.09598	133.41817	1196.15247	500.66605	133.39714	1137.04236	414.99277	120.20953	686.17468	779.84106	102.41137	729.54388	796.96869	99.40623	705.86853	853.66846	98.86591	1133.81091	786.76892	85.75166	1115.17639	844.95966	97.35915	1086.07483	771.49628									 
1312	6.555	444.48233	976.50958	822.32422	444.69089	917.20172	821.16528	429.62555	945.77319	831.65649	243.33609	-184.64951	396.92889	127.29273	2032.66785	438.45798	273.46307	1358.62793	34.52690	119.94200	1481.74756	44.41330	189.65929	1523.24243	29.48835	151.31398	1507.82080	42.06917	308.58209	488.00867	41.29812	146.68246	381.72662	49.85728	213.32188	336.54843	29.73962	173.78365	353.14590	46.35188	249.11252	496.81366	71.98790	294.28723	429.35110	71.08968	318.62384	479.84943	204.62549	309.29337	479.92645	269.53690	343.01395	515.35748	254.47842	341.04688	520.23248	297.18237	223.80545	1361.96252	67.11668	270.16388	1420.36499	69.51366	273.10153	1396.85449	316.94470	280.07513	1398.98462	251.86723	310.34741	1366.90735	300.48303	427.38834	1153.39783	698.91998	376.15158	1247.41431	570.76178	339.47940	1253.27954	605.97888	389.77399	1216.67163	627.80408	445.95551	761.58203	681.99579	364.44684	654.66620	597.20898	405.70642	669.29694	569.29285	402.22229	697.38275	628.93652	-55.38779	839.06995	1267.39709	57.66187	845.84106	1273.31738	74.45072	968.94244	1255.13733	105.75880	903.89331	1115.01550	389.66913	937.29510	870.53918	48.51388	919.17627	987.75366	77.33714	735.99390	1026.62622	59.95697	1065.72192	1027.91431	155.76854	664.24957	494.24597	154.19240	705.32275	494.66104	158.79945	723.07849	408.50146	138.31244	1148.38354	501.96692	133.57097	1196.12622	502.56714	133.43954	1137.00757	416.87326	120.19788	686.12671	781.45923	102.49292	729.53564	798.61322	99.43655	705.75916	855.27271	99.20211	1133.77197	788.68286	86.11578	1115.14233	846.85425	97.55942	1086.05859	773.43805									 
1313	6.560	444.35565	976.50458	823.18182	444.51123	917.28796	821.95715	429.53751	945.75732	832.54681	243.47737	-184.68324	398.15521	127.30135	2032.64038	440.77203	273.45621	1358.60791	34.49931	119.93179	1481.77063	44.41311	189.65689	1523.11841	29.31883	151.30804	1507.83130	42.07601	308.56573	488.05087	41.25168	146.67520	381.71887	49.85262	213.31877	336.55164	29.74189	173.77977	353.13971	46.35982	249.11038	496.87262	71.93237	294.30511	429.40341	71.08944	318.74066	480.18204	204.52966	309.07391	480.49973	269.11127	343.20389	515.71808	254.27910	341.26080	520.73749	297.01508	223.78169	1361.93091	67.06141	270.14886	1420.31995	69.53368	273.11969	1396.31152	316.88846	279.90414	1398.43347	251.75702	310.25577	1366.32495	300.22318	427.05008	1153.25513	699.58136	376.05331	1247.08875	571.12439	339.29938	1253.05640	606.24585	389.54755	1216.47961	628.29169	445.55829	761.67053	682.52618	364.31003	654.87561	597.31042	405.59561	669.69019	569.51898	402.02219	697.53265	629.22681	-54.56182	838.93494	1269.59985	58.48299	845.65607	1275.23633	75.32424	968.76123	1256.98523	106.03352	903.50055	1116.82861	389.62390	937.19904	871.60950	48.78099	919.02026	989.71228	77.49514	735.79425	1028.28589	60.53735	1065.59033	1029.89978	155.89891	664.19232	495.89807	154.77992	705.15631	496.20944	158.82280	723.06091	410.17447	138.43182	1148.35266	503.85818	133.69905	1196.10840	504.45422	133.51395	1136.98340	418.73782	120.17785	686.03931	783.13000	102.57822	729.50183	800.28833	99.47341	705.68671	856.93274	99.56620	1133.70923	790.60120	86.52937	1115.09680	848.77557	97.88361	1086.00403	775.30511									 
1314	6.565	444.30270	976.44458	824.01642	444.40103	917.25623	822.73541	429.46097	945.72400	833.36285	243.63356	-184.70110	399.39120	127.32555	2032.60742	443.09988	273.43674	1358.58899	34.45723	119.92119	1481.76147	44.40912	189.62259	1523.23230	29.47545	151.28189	1507.84326	42.07824	308.56415	488.08347	41.21607	146.67159	381.71829	49.84535	213.31604	336.55170	29.74558	173.77979	353.13565	46.35565	249.08908	496.94559	71.87714	294.32813	429.46582	71.10558	318.85504	480.45660	204.45370	309.65237	480.80661	269.37100	343.35788	516.20721	254.11826	341.44052	521.28003	296.84177	223.75459	1361.88208	66.99274	270.12592	1420.25024	69.54755	272.41681	1395.53333	316.81335	279.97275	1398.01074	251.74698	310.33279	1365.80396	300.12567	426.71002	1153.14490	700.22510	375.86880	1246.69727	571.43207	339.06656	1252.77966	606.47559	389.26727	1216.25159	628.70844	445.14124	761.75183	683.05249	364.18066	655.06891	597.36945	405.43890	670.04047	569.69141	401.73245	697.88428	629.50458	-53.73213	838.86163	1271.82910	59.35660	845.41931	1277.21484	76.22624	968.52057	1258.85547	106.75227	903.46149	1118.61365	389.58414	937.10962	872.65216	49.01323	918.84570	991.67468	77.69453	735.56720	1029.95239	61.07338	1065.45630	1031.90845	156.00616	664.10852	497.59991	154.90965	705.08820	497.87192	158.87447	723.03296	411.85425	138.53993	1148.32568	505.73935	133.84540	1196.08179	506.36011	133.55281	1136.97131	420.63480	120.27271	686.00995	784.72632	102.75882	729.47528	801.97125	99.35533	705.51141	858.44849	99.62459	1133.55322	792.60333	86.89912	1115.05017	850.68567	98.18909	1086.09375	776.98419									 
1315	6.570	444.22543	976.40039	824.80219	444.31415	917.17828	823.55371	429.38766	945.65167	834.19452	243.73116	-184.67757	400.62717	127.38765	2032.53955	445.39636	273.41113	1358.56958	34.41941	119.89840	1481.78442	44.39951	189.63148	1523.13257	29.36248	151.27654	1507.86108	42.09245	308.56192	488.10501	41.17162	146.66666	381.72134	49.83431	213.31645	336.56454	29.74690	173.77461	353.14056	46.35142	249.07059	497.02521	71.81892	294.34125	429.54819	71.11578	318.96097	480.80685	204.36842	309.78073	481.25293	269.27780	343.69516	516.51068	253.89363	341.60864	521.80499	296.67163	223.72781	1361.83020	66.92576	270.08032	1420.16138	69.54955	272.48868	1395.01257	316.80032	280.22852	1397.66870	251.73970	310.38666	1365.28467	300.05228	426.36743	1153.02283	700.87360	375.64243	1246.32422	571.70276	338.81583	1252.54431	606.67456	388.84805	1216.09424	629.13556	444.71121	761.82208	683.55444	364.03571	655.27411	597.42633	405.30228	670.41516	569.82922	401.47992	698.00580	629.76617	-52.84334	838.74396	1274.09851	60.23985	845.22076	1279.19556	77.17271	968.28821	1260.75586	107.22137	902.95660	1120.55664	389.55350	936.98785	873.69904	49.23130	918.67291	993.65570	77.97398	735.34271	1031.64063	61.60841	1065.29102	1033.89722	156.11279	664.01410	499.31491	154.63356	705.09045	499.63074	158.96748	723.00806	413.52444	138.65108	1148.29114	507.62656	134.01605	1196.02344	508.27628	133.62898	1136.94385	422.50797	120.45064	685.92047	786.37610	102.98038	729.44043	803.66547	99.68286	705.52820	860.23517	100.26735	1133.47852	794.44360	87.27987	1114.93115	852.63989	98.42018	1085.77832	779.17499									 
